HIERARCHY
ROOT Hips
{
	OFFSET -0.001795 -0.223333 0.028219
	CHANNELS 6 Xposition Yposition Zposition Zrotation Yrotation Xrotation 
	JOINT LeftUpLeg
	{
		OFFSET 0.069520 -0.091406 -0.006815
		CHANNELS 3 Zrotation Yrotation Xrotation
		JOINT LeftLeg
		{
			OFFSET 0.034277 -0.375199 -0.004496
			CHANNELS 3 Zrotation Yrotation Xrotation
			JOINT LeftFoot
			{
				OFFSET -0.013596 -0.397961 -0.043693
				CHANNELS 3 Zrotation Yrotation Xrotation
				JOINT LeftToe
				{
					OFFSET 0.026358 -0.055791 0.119288
					CHANNELS 3 Zrotation Yrotation Xrotation
					End Site
					{
						OFFSET 0.000000 0.000000 0.000000
					}
				}
			}
		}
	}
	JOINT RightUpLeg
	{
		OFFSET -0.067670 -0.090522 -0.004320
		CHANNELS 3 Zrotation Yrotation Xrotation
		JOINT RightLeg
		{
			OFFSET -0.038290 -0.382569 -0.008850
			CHANNELS 3 Zrotation Yrotation Xrotation
			JOINT RightFoot
			{
				OFFSET 0.015774 -0.398415 -0.042312
				CHANNELS 3 Zrotation Yrotation Xrotation
				JOINT RightToe
				{
					OFFSET -0.025372 -0.048144 0.123348
					CHANNELS 3 Zrotation Yrotation Xrotation
					End Site
					{
						OFFSET 0.000000 0.000000 0.000000
					}
				}
			}
		}
	}
	JOINT Spine
	{
		OFFSET -0.002533 0.108963 -0.026696
		CHANNELS 3 Zrotation Yrotation Xrotation
		JOINT Spine1
		{
			OFFSET 0.005487 0.135180 0.001092
			CHANNELS 3 Zrotation Yrotation Xrotation
			JOINT Spine2
			{
				OFFSET 0.001457 0.052922 0.025425
				CHANNELS 3 Zrotation Yrotation Xrotation
				JOINT Neck
				{
					OFFSET -0.002778 0.213870 -0.042857
					CHANNELS 3 Zrotation Yrotation Xrotation
					JOINT Head
					{
						OFFSET 0.005152 0.064970 0.051349
						CHANNELS 3 Zrotation Yrotation Xrotation
						End Site
						{
							OFFSET 0.000000 0.000000 0.000000
						}
					}
				}
				JOINT LeftShoulder
				{
					OFFSET 0.078845 0.121749 -0.034090
					CHANNELS 3 Zrotation Yrotation Xrotation
					JOINT LeftArm
					{
						OFFSET 0.090977 0.030469 -0.008868
						CHANNELS 3 Zrotation Yrotation Xrotation
						JOINT LeftForeArm
						{
							OFFSET 0.259612 -0.012772 -0.027456
							CHANNELS 3 Zrotation Yrotation Xrotation
							JOINT LeftHand
							{
								OFFSET 0.249234 0.008986 -0.001171
								CHANNELS 3 Zrotation Yrotation Xrotation
								End Site
								{
									OFFSET 0.000000 0.000000 0.000000
								}
							}
						}
					}
				}
				JOINT RightShoulder
				{
					OFFSET -0.081759 0.118833 -0.038615
					CHANNELS 3 Zrotation Yrotation Xrotation
					JOINT RightArm
					{
						OFFSET -0.096012 0.032551 -0.009143
						CHANNELS 3 Zrotation Yrotation Xrotation
						JOINT RightForeArm
						{
							OFFSET -0.253742 -0.013329 -0.021401
							CHANNELS 3 Zrotation Yrotation Xrotation
							JOINT RightHand
							{
								OFFSET -0.255298 0.007772 -0.005559
								CHANNELS 3 Zrotation Yrotation Xrotation
								End Site
								{
									OFFSET 0.000000 0.000000 0.000000
								}
							}
						}
					}
				}
			}
		}
	}
}
MOTION
Frames: 8
Frame Time: 0.050000
0.000000 0.941900 0.000000 -7.345517 -9.995287 17.861686 -0.096911 -0.961375 -11.878001 1.262697 0.357983 -10.020215 -2.959828 -1.876547 11.844630 0.000000 0.000000 0.000000 -6.842960 0.472838 4.023192 17.361050 -6.041343 65.648884 -11.571079 -25.138110 18.178731 0.000000 0.000000 0.000000 -3.105801 0.334332 -3.385386 7.414250 -1.013188 -24.955788 2.295116 11.676264 22.198328 5.911313 -1.902305 -17.998311 0.000000 0.000000 0.000000 -21.155570 15.642571 -11.927574 -24.684857 3.501042 -3.921525 2.428022 -29.337468 0.259939 0.000000 0.000000 0.000000 15.832979 -5.650065 -2.931890 26.839535 7.926812 -2.541068 -22.578295 29.251563 -3.863595 0.000000 0.000000 0.000000 
0.002671 0.944793 0.001901 -7.690833 -11.333865 18.047166 1.020157 -0.813587 -10.873222 -0.671411 0.515102 -11.634551 -2.676838 -1.040652 13.554140 0.000000 0.000000 0.000000 -7.095585 0.586347 2.200068 19.676411 -7.514733 69.144939 -10.658295 -23.754167 19.826302 0.000000 0.000000 0.000000 -3.700854 0.380242 -3.632368 8.764992 -1.042050 -26.709725 3.342787 12.293306 24.895939 7.238239 -2.437929 -20.878534 0.000000 0.000000 0.000000 -22.178372 16.532665 -12.741173 -24.975733 2.950247 -4.055661 2.080506 -25.968486 0.388750 0.000000 0.000000 0.000000 16.412431 -5.110322 -2.639695 28.205108 7.557876 -2.898024 -26.689510 30.659678 -5.063619 0.000000 0.000000 0.000000 
0.004361 0.948135 0.002991 -6.523720 -12.158678 17.590290 -0.117463 -0.916894 -11.358819 -1.198679 0.465609 -10.149036 -2.564784 -0.670072 14.494050 0.000000 0.000000 0.000000 -6.650157 0.469898 4.944015 20.983893 -7.413380 62.014022 -13.758445 -29.598105 8.783565 0.000000 0.000000 0.000000 -2.707278 0.341912 -3.820510 7.794645 -1.109440 -24.843741 2.178795 12.689764 22.545593 7.237158 -2.617727 -19.355706 0.000000 0.000000 0.000000 -21.112426 17.908157 -13.170205 -25.007362 4.965647 -4.262115 2.655711 -27.942497 0.247966 0.000000 0.000000 0.000000 16.831884 -2.886664 -1.549459 26.808352 7.644848 -2.604872 -25.199406 28.199246 -4.364245 0.000000 0.000000 0.000000 
0.005388 0.950507 0.003872 -6.724098 -13.069640 18.432107 -0.302355 -0.954196 -11.947959 -0.745818 0.466456 -10.446837 -2.256963 -0.058034 15.450758 0.000000 0.000000 0.000000 -6.515381 0.497031 4.198601 21.177647 -7.247113 63.334223 -10.091749 -22.971470 17.590167 0.000000 0.000000 0.000000 -3.743203 0.408574 -4.051722 9.090014 -1.165915 -26.125115 2.753624 12.822022 23.436684 6.055295 -1.785601 -20.272516 0.000000 0.000000 0.000000 -21.023303 20.903476 -14.853730 -25.716547 4.879219 -4.392881 2.086595 -27.519747 0.428545 0.000000 0.000000 0.000000 15.252799 -3.975814 -2.124167 26.661532 8.606981 -2.422020 -22.382475 28.007354 -3.727316 0.000000 0.000000 0.000000 
0.005118 0.951542 0.004381 -6.549871 -13.274552 18.785862 -0.119873 -0.961114 -12.334760 -1.375313 0.492907 -10.440946 -2.264125 0.042532 15.965733 0.000000 0.000000 0.000000 -6.559935 0.502177 4.954939 22.019166 -7.766733 63.277039 -10.400575 -23.522163 16.028077 0.000000 0.000000 0.000000 -3.635543 0.436618 -4.814171 9.056717 -1.174879 -25.963483 2.646829 12.952129 23.058872 6.991882 -2.573754 -18.981342 0.000000 0.000000 0.000000 -20.886320 21.262080 -15.015994 -25.222597 6.072564 -4.478206 3.184746 -26.809118 0.153312 0.000000 0.000000 0.000000 15.578567 -3.999151 -2.166805 24.548420 8.699064 -2.258650 -21.021942 27.103167 -3.358103 0.000000 0.000000 0.000000 
0.003985 0.953233 0.004690 -7.027575 -14.910301 18.828452 0.044993 -0.922852 -12.252119 -0.981207 0.470931 -10.129597 -1.407444 1.159856 16.186721 0.000000 0.000000 0.000000 -7.036606 0.611916 5.780610 23.096877 -7.925797 64.222097 -11.458377 -25.220477 14.927169 0.000000 0.000000 0.000000 -3.719163 0.441581 -4.401747 9.244305 -1.250207 -25.611047 2.774988 12.884005 22.522787 5.505678 -1.981841 -17.167861 0.000000 0.000000 0.000000 -20.739809 22.503475 -15.470042 -24.964938 7.286461 -4.623458 4.828202 -25.527886 -0.153854 0.000000 0.000000 0.000000 15.360781 -3.914579 -2.338998 23.625581 9.605343 -1.978252 -19.392168 26.593942 -3.050902 0.000000 0.000000 0.000000 
0.001944 0.952436 0.005153 -7.420054 -15.713744 19.491611 0.341788 -0.901934 -12.651626 -0.735821 0.470562 -10.254632 -0.883984 1.766203 15.938176 0.000000 0.000000 0.000000 -7.085861 0.648607 6.026964 24.063542 -8.327256 65.224883 -11.369884 -25.050520 15.104233 0.000000 0.000000 0.000000 -3.746355 0.485372 -5.124890 9.028774 -1.267101 -25.163443 3.012626 12.735504 22.058304 6.151148 -2.557932 -16.776882 0.000000 0.000000 0.000000 -19.365736 23.397750 -15.335860 -25.705032 9.354109 -5.107780 4.640788 -24.652844 -0.067975 0.000000 0.000000 0.000000 14.804273 -4.164238 -2.578661 22.875672 9.447109 -1.873204 -17.580639 25.020863 -2.549376 0.000000 0.000000 0.000000 
-0.000513 0.951242 0.006014 -8.139106 -17.077663 19.988153 0.862535 -0.810575 -12.105168 -0.443911 0.530716 -11.344059 -0.100716 2.721441 15.787353 0.000000 0.000000 0.000000 -7.185176 0.707315 5.944140 24.698746 -8.272254 66.589527 -10.652779 -23.902375 14.715545 0.000000 0.000000 0.000000 -3.817271 0.520504 -5.410521 9.037739 -1.288335 -24.981029 3.731571 12.892222 21.950691 6.023965 -2.650654 -16.138904 0.000000 0.000000 0.000000 -19.038161 24.064509 -15.471128 -26.322631 10.378709 -5.412280 4.506972 -23.662046 0.014594 0.000000 0.000000 0.000000 14.230992 -4.573844 -2.887143 23.162576 9.402220 -1.817576 -16.457685 23.900588 -2.250269 0.000000 0.000000 0.000000 
